<svg width="48" height="48" viewBox="0 0 48 48" fill="none" xmlns="http://www.w3.org/2000/svg">
<rect width="48" height="48" rx="16" fill="white"/>
<path d="M25.9105 20.1055C25.9105 21.9534 25.1848 23.6246 23.9973 24.8667C22.8148 23.6246 22.084 21.9534 22.084 20.1055C22.084 18.2576 22.8097 16.5864 23.9973 15.3444C25.1848 16.5864 25.9105 18.2627 25.9105 20.1055Z" fill="#0BAE4D"/>
<path d="M25.748 21.6053C25.4739 22.8524 24.8548 23.9732 23.9971 24.8669C23.1445 23.9732 22.5254 22.8524 22.2513 21.6053C22.8096 21.4589 23.3932 21.3831 23.9971 21.3831C24.6061 21.3831 25.1897 21.4589 25.748 21.6053Z" fill="#6CBD45"/>
<path d="M30.9555 28.3005C30.9555 32.1225 27.8394 35.2175 23.9977 35.2175C20.1559 35.2175 17.0449 32.1225 17.0449 28.3005C17.0449 27.7855 17.1007 27.2856 17.2124 26.8009C17.7706 26.9474 18.3543 27.0231 18.9582 27.0231C20.9425 27.0231 22.7391 26.1951 24.0027 24.8672C25.2664 26.2001 27.0629 27.0231 29.0473 27.0231C29.6563 27.0231 30.2399 26.9474 30.7981 26.8009C30.8996 27.2856 30.9555 27.7855 30.9555 28.3005Z" fill="#FFDE16"/>
<path d="M23.9974 24.8667C22.7337 26.1997 20.9371 27.0226 18.9528 27.0226C18.3489 27.0226 17.7653 26.9469 17.207 26.8005C17.7704 24.2609 19.7344 22.2463 22.2516 21.6051C22.5256 22.8522 23.1448 23.9781 23.9974 24.8667Z" fill="#0054A6"/>
<path d="M22.084 20.1078C22.084 20.6228 22.1398 21.1226 22.2515 21.6073C19.7343 22.2486 17.7703 24.2681 17.2069 26.8027C14.2127 26.0353 12 23.329 12 20.1078C12 16.2857 15.111 13.1907 18.9527 13.1907C20.9371 13.1907 22.7336 14.0188 23.9973 15.3466C22.8148 16.5887 22.084 18.2649 22.084 20.1078Z" fill="#213F9A"/>
<path d="M30.7928 26.806C30.2346 26.9525 29.6509 27.0282 29.0419 27.0282C27.0576 27.0282 25.2611 26.2002 23.9974 24.8723C24.8551 23.9786 25.4692 22.8577 25.7483 21.6107C28.2604 22.2569 30.2295 24.2664 30.7928 26.806Z" fill="#6EB544"/>
<path d="M35.9999 20.1058C35.9999 23.3271 33.7872 26.0333 30.7929 26.8008C30.2296 24.2611 28.2656 22.2516 25.7484 21.6054C25.855 21.1207 25.9159 20.6208 25.9159 20.1058C25.9159 18.2579 25.1901 16.5867 24.0026 15.3447C25.2663 14.0118 27.0628 13.1888 29.0471 13.1888C32.8838 13.1888 35.9999 16.2838 35.9999 20.1058Z" fill="#0DA14B"/>
</svg>
